<svg width="24" height="24" viewBox="0 0 24 24" fill="none" xmlns="http://www.w3.org/2000/svg">
<rect width="24" height="24" rx="4" fill="#593F3F"/>
<path d="M15.5891 7.50952C14.6155 6.54307 13.2949 6.00008 11.9179 6C10.5409 5.99992 9.22026 6.54275 8.24651 7.50909C7.27276 8.47542 6.72567 9.78609 6.72559 11.1528C6.7255 12.5195 7.27244 13.8302 8.24608 14.7966L11.2807 17.7424C11.451 17.9075 11.6796 18 11.9176 18C12.1556 18 12.3842 17.9075 12.5545 17.7424L15.5891 14.7966C16.5627 13.8303 17.1097 12.5197 17.1097 11.1531C17.1097 9.78649 16.5627 8.47587 15.5891 7.50952ZM11.9176 12.86C11.5753 12.86 11.2407 12.7593 10.9561 12.5705C10.6715 12.3818 10.4497 12.1135 10.3187 11.7997C10.1877 11.4858 10.1535 11.1404 10.2202 10.8072C10.287 10.4741 10.4518 10.168 10.6939 9.92778C10.9359 9.68757 11.2443 9.52398 11.58 9.4577C11.9157 9.39142 12.2637 9.42544 12.5799 9.55544C12.8961 9.68545 13.1664 9.9056 13.3566 10.1881C13.5467 10.4705 13.6482 10.8026 13.6482 11.1423C13.6482 11.5979 13.4659 12.0348 13.1413 12.3569C12.8168 12.679 12.3766 12.86 11.9176 12.86Z" fill="white"/>
</svg>
