<svg width="25" height="24" viewBox="0 0 25 24" fill="none" xmlns="http://www.w3.org/2000/svg">
<path d="M9.97604 6.70978C9.88333 6.80229 9.80979 6.91218 9.75961 7.03315C9.70942 7.15413 9.68359 7.28381 9.68359 7.41478C9.68359 7.54575 9.70942 7.67543 9.75961 7.7964C9.80979 7.91738 9.88333 8.02726 9.97604 8.11978L13.856 11.9998L9.97604 15.8798C9.78906 16.0668 9.68402 16.3203 9.68402 16.5848C9.68402 16.8492 9.78906 17.1028 9.97604 17.2898C10.163 17.4768 10.4166 17.5818 10.681 17.5818C10.9455 17.5818 11.1991 17.4768 11.386 17.2898L15.976 12.6998C16.0687 12.6073 16.1423 12.4974 16.1925 12.3764C16.2427 12.2554 16.2685 12.1257 16.2685 11.9948C16.2685 11.8638 16.2427 11.7341 16.1925 11.6132C16.1423 11.4922 16.0687 11.3823 15.976 11.2898L11.386 6.69978C11.006 6.31978 10.366 6.31978 9.97604 6.70978Z" fill="#593F3F"/>
</svg>
