<svg width="19" height="19" viewBox="0 0 19 19" fill="none" xmlns="http://www.w3.org/2000/svg">
<path d="M16.066 2.37793H6.74313C6.51132 2.37793 6.28901 2.47001 6.1251 2.63392C5.96119 2.79783 5.86911 3.02014 5.86911 3.25195V5.87399H3.24706C3.01526 5.87399 2.79295 5.96608 2.62904 6.12999C2.46513 6.2939 2.37305 6.5162 2.37305 6.74801V16.0708C2.37305 16.3026 2.46513 16.525 2.62904 16.6889C2.79295 16.8528 3.01526 16.9449 3.24706 16.9449H12.5699C12.8017 16.9449 13.024 16.8528 13.1879 16.6889C13.3518 16.525 13.4439 16.3026 13.4439 16.0708V13.4488H16.066C16.2978 13.4488 16.5201 13.3567 16.684 13.1928C16.8479 13.0289 16.94 12.8066 16.94 12.5748V3.25195C16.94 3.02014 16.8479 2.79783 16.684 2.63392C16.5201 2.47001 16.2978 2.37793 16.066 2.37793ZM11.6959 15.1968H4.12108V7.62202H11.6959V15.1968ZM15.1919 11.7008H13.4439V6.74801C13.4439 6.5162 13.3518 6.2939 13.1879 6.12999C13.024 5.96608 12.8017 5.87399 12.5699 5.87399H7.61714V4.12596H15.1919V11.7008Z" fill="#593F3F"/>
</svg>
