<svg width="24" height="24" viewBox="0 0 24 24" fill="none" xmlns="http://www.w3.org/2000/svg">
<rect width="24" height="24" rx="4" fill="#593F3F"/>
<path fill-rule="evenodd" clip-rule="evenodd" d="M8.96815 8.25C8.96815 7.45435 9.2831 6.69129 9.84371 6.12868C10.4043 5.56607 11.1647 5.25 11.9575 5.25C12.7503 5.25 13.5107 5.56607 14.0713 6.12868C14.6319 6.69129 14.9469 7.45435 14.9469 8.25C14.9469 9.04565 14.6319 9.80871 14.0713 10.3713C13.5107 10.9339 12.7503 11.25 11.9575 11.25C11.1647 11.25 10.4043 10.9339 9.84371 10.3713C9.2831 9.80871 8.96815 9.04565 8.96815 8.25ZM8.96815 12.75C7.97711 12.75 7.02667 13.1451 6.3259 13.8483C5.62513 14.5516 5.23145 15.5054 5.23145 16.5C5.23145 17.0967 5.46766 17.669 5.88812 18.091C6.30858 18.5129 6.87885 18.75 7.47347 18.75H16.4416C17.0362 18.75 17.6064 18.5129 18.0269 18.091C18.4474 17.669 18.6836 17.0967 18.6836 16.5C18.6836 15.5054 18.2899 14.5516 17.5891 13.8483C16.8883 13.1451 15.9379 12.75 14.9469 12.75H8.96815Z" fill="white"/>
</svg>
